<?xml version="1.0" encoding="UTF-8"?>
<svg id="Layer_1" data-name="Layer 1" xmlns="http://www.w3.org/2000/svg" viewBox="0 0 500 500">
  <defs>
    <style>
      .cls-1 {
        fill: #fff;
      }
    </style>
  </defs>
  <circle cx="250" cy="250" r="250"/>
  <path class="cls-1" d="M91.51,256.68c19.95,18.97,46.33,26.72,73.08,29.85,28.19,3.29,57.19,1.69,84.93-4.25,27.71-5.93,55.85-16.68,78.14-34.52,21.37-17.11,35.27-43.68,30.8-71.43-2.42-15.01-11.17-28.02-25.48-33.76-14.28-5.72-29.48-2.74-43.12,3.24-23.66,10.37-44.42,28.31-60.94,47.94-17.75,21.08-35.19,46.34-41.71,73.48-6.57,27.34.06,56.15,22.77,73.93,26.25,20.55,60.59,20.98,92.34,18.12,34.39-3.09,68.24-10.47,100.69-22.28,6.29-2.29,10.54-8.43,8.66-15.26-1.67-6.07-8.93-10.96-15.26-8.66-24.86,9.05-50.58,15.61-76.76,19.41-24.03,3.49-51.06,6.49-74.68-.64-18.26-5.51-34.1-19.09-35.41-39.67-1.5-23.58,11.39-45.18,24.17-63.99,12.05-17.74,26.81-34.37,44.33-46.87,8.97-6.4,18.91-12.83,29.61-15.81,8.39-2.34,17.86-2.09,22.89,5.4,5.32,7.92,4.86,18.61,2.52,27.21-2.68,9.89-8.32,18.48-15.66,25.67-16.22,15.89-38.94,25.02-60.45,31.09-27.2,7.68-55.59,9.84-83.73,7.68-22.63-1.74-47.18-7.23-64.21-23.41-11.57-11-29.14,6.51-17.54,17.54h0Z"/>
</svg>